<?xml version="1.0" encoding="UTF-8"?>
<svg xlink:href="data:img/png;base64" width="35px" height="28px" viewBox="0 0 35 28" version="1.1" xmlns="http://www.w3.org/2000/svg" xmlns:xlink:href="data:img/png;base64">
    <title>Twitter - Icon</title>
    <desc>Created with Sketch.</desc>
    <defs></defs>
    <g id="Symbols" stroke="none" stroke-width="1" fill="none" fill-rule="evenodd">
        <g id="Footer---1" transform="translate(-160.000000, -476.000000)" fill="#03A9F4" fill-rule="nonzero">
            <g id="Stacked-Group-4" transform="translate(110.000000, 464.000000)">
                <g id="Social-Icons" transform="translate(0.000000, 8.000000)">
                    <path d="M85,7.23076923 C83.6956522,7.87692308 82.3913043,8.09230769 80.8695652,8.30769231 C82.3913043,7.44615385 83.4782609,6.15384615 83.9130435,4.43076923 C82.6086957,5.29230769 81.0869565,5.72307692 79.3478261,6.15384615 C78.0434783,4.86153846 76.0869565,4 74.1304348,4 C70.2173913,4 66.9565217,7.23076923 66.9565217,11.1076923 C66.9565217,11.7538462 66.9565217,12.1846154 67.173913,12.6153846 C61.3043478,12.4 56.0869565,9.6 52.3913043,5.29230769 C51.7391304,6.36923077 51.5217391,7.66153846 51.5217391,8.95384615 C51.5217391,11.3230769 52.826087,13.4769231 54.7826087,14.7692308 C53.6956522,14.7692308 52.6086957,14.3384615 51.5217391,13.9076923 C51.5217391,13.9076923 51.5217391,13.9076923 51.5217391,13.9076923 C51.5217391,17.3538462 53.9130435,20.1538462 57.173913,20.8 C56.5217391,21.0153846 55.8695652,21.0153846 55.2173913,21.0153846 C54.7826087,21.0153846 54.3478261,21.0153846 53.9130435,20.8 C54.7826087,23.6 57.3913043,25.7538462 60.6521739,25.7538462 C58.2608696,27.6923077 55.2173913,28.7692308 51.7391304,28.7692308 C51.0869565,28.7692308 50.6521739,28.7692308 50,28.7692308 C53.2608696,30.7076923 56.9565217,32 60.8695652,32 C73.9130435,32 81.0869565,21.2307692 81.0869565,11.9692308 C81.0869565,11.7538462 81.0869565,11.3230769 81.0869565,11.1076923 C82.826087,10.0307692 84.1304348,8.73846154 85,7.23076923 Z" id="Twitter---Icon"></path>
                </g>
            </g>
        </g>
    </g>
</svg>
